<?xml version="1.0" encoding="UTF-8"?>
<svg id="Layer_2" data-name="Layer 2" xmlns="http://www.w3.org/2000/svg" viewBox="0 0 200 200.06">
  <defs>
    <style>
      .cls-1 {
        fill: #fff;
      }

      .cls-2 {
        fill: #d62839;
      }
    </style>
  </defs>
  <g id="Layer_1-2" data-name="Layer 1">
    <g>
      <path class="cls-2" d="M53.55,195.77c-3.53-6.55-10.94-22.39-9.81-43.64,1.2-22.39,11.2-37.95,15.53-43.95,12.86-6.27,18.73-5.13,21.68-3.28,8.86,5.55-1.3,22.06-.91,57.72.22,20.26,3.68,31.04-3.39,35.62-6.13,3.97-16.12.65-23.1-2.47Z"/>
      <path class="cls-2" d="M145.8,195.77c3.53-6.55,10.94-22.39,9.81-43.64-1.2-22.39-11.2-37.95-15.53-43.95-12.86-6.27-18.73-5.13-21.68-3.28-8.86,5.55,1.3,22.06.91,57.72-.22,20.26-3.68,31.04,3.39,35.62,6.13,3.97,16.12.65,23.1-2.47Z"/>
      <path class="cls-1" d="M170.71,27.09c-8.9-8.76-19.77-15.46-31.77-19.93l.05-.13C125.88,2.12,112.15-.24,98.18.02c-11.45.21-22.72,2.2-33.56,5.89-13.41,4.43-25.56,11.56-35.34,21.18C-3.53,59.36-7.11,98.98,10.31,135.75c9.8,20.68,21.8,39.97,37.59,58.57-4.35-8.45-11.36-25.45-8.67-47.5,1.92-15.71,8.04-28.06,12.74-35.76-9.19,4.79-13.67,11.64-20.74,17.92-3.57-6.62-7.59-16.16-8.88-27.94-3.13-28.67,9.68-73.42,50.8-86.93,0,0,0-.02-.01-.03,8.22-2.32,16.67-3.57,25.24-3.73,9.69-.18,19.25,1.04,28.53,3.62-.02.05-.04.09-.06.14,41.12,13.51,53.92,58.25,50.8,86.93-1.29,11.78-5.31,21.31-8.88,27.94-7.07-6.27-11.56-13.13-20.74-17.92,4.7,7.7,10.82,20.06,12.74,35.76,2.69,22.05-4.32,39.05-8.67,47.5,15.8-18.61,27.8-37.89,37.59-58.57,17.42-36.78,13.84-76.4-18.98-108.66Z"/>
    </g>
  </g>
</svg>